<svg width="151" height="117" viewBox="0 0 151 117" fill="none" xmlns="http://www.w3.org/2000/svg">
<path d="M144.389 0V8.56543C132.269 12.9938 122.771 19.986 115.896 29.542C109.02 38.9814 105.582 48.8288 105.582 59.084C105.582 61.2982 105.932 62.9297 106.631 63.9785C107.097 64.6777 107.621 65.0273 108.204 65.0273C108.787 65.0273 109.661 64.6195 110.826 63.8037C114.555 61.1234 119.275 59.7832 124.985 59.7832C131.628 59.7832 137.513 62.5218 142.641 67.999C147.768 73.3597 150.332 79.7692 150.332 87.2275C150.332 95.0355 147.36 101.911 141.417 107.854C135.59 113.798 128.481 116.77 120.091 116.77C110.302 116.77 101.853 112.749 94.7441 104.708C87.6354 96.667 84.0811 85.8874 84.0811 72.3691C84.0811 56.6367 88.9173 42.5358 98.5898 30.0664C108.262 17.597 123.529 7.57487 144.389 0ZM60.3076 0V8.56543C48.1878 12.9938 38.6901 19.986 31.8145 29.542C24.9388 38.9814 21.501 48.8288 21.501 59.084C21.501 61.2982 21.8506 62.9297 22.5498 63.9785C23.016 64.6777 23.5404 65.0273 24.123 65.0273C24.7057 65.0273 25.5798 64.6195 26.7451 63.8037C30.4743 61.1234 35.194 59.7832 40.9043 59.7832C47.5469 59.7832 53.432 62.5218 58.5596 67.999C63.6872 73.3597 66.251 79.7692 66.251 87.2275C66.251 95.0355 63.2793 101.911 57.3359 107.854C51.5091 113.798 44.4004 116.77 36.0098 116.77C26.2207 116.77 17.7718 112.749 10.6631 104.708C3.55436 96.667 0 85.8874 0 72.3691C0 56.6367 4.83626 42.5358 14.5088 30.0664C24.1813 17.597 39.4476 7.57487 60.3076 0Z" fill="black"/>
</svg>
