<svg width="185" height="43" viewBox="0 0 185 43" fill="none" xmlns="http://www.w3.org/2000/svg">
<path d="M14.28 3.56004C5.63997 3.56004 -2.92361e-05 9.48004 -2.92361e-05 17.88C-2.92361e-05 26.32 5.67997 32.24 14.32 32.24C21.68 32.24 26.04 27.68 27.72 23.56V15.96H13.08V21.6H20.96C19.8 24.04 17.8 25.32 15.08 25.32C10.44 25.32 7.95997 22.72 7.95997 17.88C7.95997 13.56 10.36 10.8 14.32 10.8C16.48 10.8 18.08 11.64 18.96 13.12H27.4C26.28 7.24004 21.4 3.56004 14.28 3.56004ZM53.4734 20.8C53.4734 13.68 48.3934 9.32004 41.7134 9.32004C35.0334 9.32004 29.9534 13.68 29.9534 20.8C29.9534 27.96 34.9934 32.32 41.6734 32.32C48.3534 32.32 53.4734 27.96 53.4734 20.8ZM37.9534 20.8C37.9534 17.6 39.7134 16.12 41.7134 16.12C43.7134 16.12 45.5134 17.6 45.5134 20.8C45.5134 24.04 43.6734 25.52 41.6734 25.52C39.6334 25.52 37.9534 24.04 37.9534 20.8ZM78.9031 20.8C78.9031 13.68 73.8231 9.32004 67.1431 9.32004C60.4631 9.32004 55.3831 13.68 55.3831 20.8C55.3831 27.96 60.4231 32.32 67.1031 32.32C73.7831 32.32 78.9031 27.96 78.9031 20.8ZM63.3831 20.8C63.3831 17.6 65.1431 16.12 67.1431 16.12C69.1431 16.12 70.9431 17.6 70.9431 20.8C70.9431 24.04 69.1031 25.52 67.1031 25.52C65.0631 25.52 63.3831 24.04 63.3831 20.8ZM80.8128 20.8C80.8128 27.96 85.0528 32.32 90.3728 32.32C93.5328 32.32 95.7728 30.92 96.9328 28.92V32.04H104.813V2.44004H96.9328V12.68C95.6928 10.64 93.3728 9.32004 90.4128 9.32004C85.0528 9.32004 80.8128 13.64 80.8128 20.8ZM96.9728 20.8C96.9728 23.84 95.0928 25.48 92.8928 25.48C90.6528 25.48 88.8128 23.8 88.8128 20.8C88.8128 17.76 90.6528 16.16 92.8928 16.16C95.0928 16.16 96.9728 17.8 96.9728 20.8Z" fill="white"/>
<path d="M109.28 32.04H117.12V2.44004H109.28V32.04ZM132.585 22.32L127.865 9.60004H119.145L128.345 31.08L122.985 42.72H131.505L145.745 9.60004H137.145L132.585 22.32ZM148.516 32.04H156.396V16.12H159.916V9.60004H156.396C156.516 7.60004 157.476 6.96004 159.836 7.20004V0.520037C152.556 3.67165e-05 148.516 3.20004 148.516 9.40004V9.60004H146.076V16.12H148.516V32.04ZM172.798 15.52C174.598 15.52 176.158 16.6 176.158 18.6H169.238C169.598 16.56 170.918 15.52 172.798 15.52ZM183.678 24.28H175.318C174.878 25.2 174.038 26.04 172.518 26.04C170.758 26.04 169.358 25 169.198 22.4H184.038C184.118 21.8 184.158 21.16 184.158 20.56C184.158 13.6 179.478 9.32004 172.838 9.32004C166.118 9.32004 161.438 13.68 161.438 20.8C161.438 27.96 166.198 32.32 172.838 32.32C178.438 32.32 182.638 28.88 183.678 24.28Z" fill="#FFC1D8"/>
</svg>
